<?xml version="1.0" encoding="utf-8"?>
<!DOCTYPE svg
  PUBLIC '-//W3C//DTD SVG 1.0//EN'
  'http://www.w3.org/TR/2001/REC-SVG-20010904/DTD/svg10.dtd'>
<svg width="1120" height="760" preserveAspectRatio="xMinYMin meet" viewBox="0 0 1120 760" xmlns="http://www.w3.org/2000/svg" version="1.0" fill-rule="evenodd" xmlns:xlink="http://www.w3.org/1999/xlink">
	<title>...</title>
	<desc>...</desc>
	<clipPath id="clip">
		<rect x="0" y="0" width="1120" height="760"/>
	</clipPath>
	<g id="group" transform="scale(1,-1) translate(0,-760)" style="clip-path: url(#clip)">
		<g transform="">
			<rect x="0" y="0" width="1120" height="760" style="stroke: none; stroke-linecap: butt; stroke-width: 1; fill: rgb(100%,100%,100%); fill-rule: evenodd;"/>
			<rect x="0" y="686" width="1120" height="74" style="stroke: none; stroke-linecap: butt; stroke-width: 1; fill: rgb(9%,18%,27%); fill-rule: evenodd;"/>
			<text x="28" y="729" style="font-family: DejaVu-Bold; font-size: 20px;fill: rgb(100%,100%,100%); stroke:none;" transform="translate(0,1458) scale(1,-1)">03 / DIRECT VALVE CONNECTIONS</text>
			<text x="28" y="704" style="font-family: DejaVu; font-size: 11px;fill: rgb(84%,89%,93%); stroke:none;" transform="translate(0,1408) scale(1,-1)">Shared supply; internal Nano watchdog only; no external reset or valve-power switch</text>
			<text x="28" y="25" style="font-family: DejaVu-Bold; font-size: 10px;fill: rgb(74%,21%,18%); stroke:none;" transform="translate(0,50) scale(1,-1)">REV G  |  08 OCT 2026  |  BENCH DESIGN - H1-H5 HOLD  |  Named nets connect across sheets</text>
			<text x="28" y="9" style="font-family: DejaVu; font-size: 8px;fill: rgb(28%,34%,39%); stroke:none;" transform="translate(0,18) scale(1,-1)">Solid dot = joined wires. Crossing without a dot = no connection. Boxes show functions, not physical footprints.</text>
			<rect x="790" y="320" width="290" height="330" style="stroke: rgb(61%,67%,70%); stroke-linecap: butt; stroke-width: 1; fill: rgb(92%,94%,96%); fill-rule: evenodd;"/>
			<text x="802" y="627" style="font-family: DejaVu-Bold; font-size: 12px;fill: rgb(9%,18%,27%); stroke:none;" transform="translate(0,1254) scale(1,-1)">V1 / USS-MSV50030</text>
			<text x="802" y="609" style="font-family: DejaVu; font-size: 9px;fill: rgb(28%,34%,39%); stroke:none;" transform="translate(0,1218) scale(1,-1)">One five-wire actuator cable</text>
			<path d="M 675,583 L 790,583 Z" style="stroke: rgb(74%,21%,18%); stroke-linecap: butt; stroke-width: 1.5;"/>
			<text x="675" y="590" style="font-family: DejaVu-Bold; font-size: 9px;fill: rgb(74%,21%,18%); stroke:none;" transform="translate(0,1180) scale(1,-1)">MACHINE_12V</text>
			<circle cx="790" cy="583" r="3.2" style="stroke: rgb(9%,18%,27%); stroke-linecap: butt; stroke-width: 1; fill: rgb(100%,100%,100%); fill-rule: evenodd;"/>
			<text x="798" y="579" style="font-family: DejaVu; font-size: 10px;fill: rgb(9%,18%,27%); stroke:none;" transform="translate(0,1158) scale(1,-1)">V1.RED</text>
			<path d="M 675,537 L 790,537 Z" style="stroke: rgb(28%,34%,39%); stroke-linecap: butt; stroke-width: 1.5;"/>
			<text x="675" y="544" style="font-family: DejaVu-Bold; font-size: 9px;fill: rgb(28%,34%,39%); stroke:none;" transform="translate(0,1088) scale(1,-1)">0V</text>
			<circle cx="790" cy="537" r="3.2" style="stroke: rgb(9%,18%,27%); stroke-linecap: butt; stroke-width: 1; fill: rgb(100%,100%,100%); fill-rule: evenodd;"/>
			<text x="798" y="533" style="font-family: DejaVu; font-size: 10px;fill: rgb(9%,18%,27%); stroke:none;" transform="translate(0,1066) scale(1,-1)">V1.BLACK</text>
			<path d="M 675,493 L 790,493 Z" style="stroke: rgb(28%,34%,39%); stroke-linecap: butt; stroke-width: 1.5;"/>
			<text x="675" y="500" style="font-family: DejaVu-Bold; font-size: 9px;fill: rgb(28%,34%,39%); stroke:none;" transform="translate(0,1000) scale(1,-1)">0V / SIGNAL COMMON</text>
			<circle cx="790" cy="493" r="3.2" style="stroke: rgb(9%,18%,27%); stroke-linecap: butt; stroke-width: 1; fill: rgb(100%,100%,100%); fill-rule: evenodd;"/>
			<text x="798" y="489" style="font-family: DejaVu; font-size: 10px;fill: rgb(9%,18%,27%); stroke:none;" transform="translate(0,978) scale(1,-1)">V1.WHITE</text>
			<path d="M 675,435 L 790,435 Z" style="stroke: rgb(3%,47%,32%); stroke-linecap: butt; stroke-width: 1.5;"/>
			<text x="675" y="442" style="font-family: DejaVu-Bold; font-size: 9px;fill: rgb(3%,47%,32%); stroke:none;" transform="translate(0,884) scale(1,-1)">U2 OUT / 4-20 mA</text>
			<circle cx="790" cy="435" r="3.2" style="stroke: rgb(9%,18%,27%); stroke-linecap: butt; stroke-width: 1; fill: rgb(100%,100%,100%); fill-rule: evenodd;"/>
			<text x="798" y="431" style="font-family: DejaVu; font-size: 10px;fill: rgb(9%,18%,27%); stroke:none;" transform="translate(0,862) scale(1,-1)">V1.GREEN</text>
			<path d="M 675,378 L 790,378 Z" style="stroke: rgb(8%,45%,72%); stroke-linecap: butt; stroke-width: 1.5;"/>
			<text x="675" y="385" style="font-family: DejaVu-Bold; font-size: 9px;fill: rgb(8%,45%,72%); stroke:none;" transform="translate(0,770) scale(1,-1)">U3 I+ / FEEDBACK</text>
			<circle cx="790" cy="378" r="3.2" style="stroke: rgb(9%,18%,27%); stroke-linecap: butt; stroke-width: 1; fill: rgb(100%,100%,100%); fill-rule: evenodd;"/>
			<text x="798" y="374" style="font-family: DejaVu; font-size: 10px;fill: rgb(9%,18%,27%); stroke:none;" transform="translate(0,748) scale(1,-1)">V1.YELLOW</text>
			<rect x="35" y="470" width="360" height="180" style="stroke: rgb(61%,67%,70%); stroke-linecap: butt; stroke-width: 1; fill: rgb(92%,94%,96%); fill-rule: evenodd;"/>
			<text x="47" y="627" style="font-family: DejaVu-Bold; font-size: 12px;fill: rgb(9%,18%,27%); stroke:none;" transform="translate(0,1254) scale(1,-1)">U2 / DFR1229</text>
			<text x="47" y="609" style="font-family: DejaVu; font-size: 9px;fill: rgb(28%,34%,39%); stroke:none;" transform="translate(0,1218) scale(1,-1)">VCC 5 V; GND 0V; SDA A4; SCL A5</text>
			<text x="55" y="592" style="font-family: DejaVu; font-size: 11px;fill: rgb(28%,34%,39%); stroke:none;" transform="translate(0,1184) scale(1,-1)">OUT -&gt; valve GREEN directly.</text>
			<text x="55" y="576" style="font-family: DejaVu; font-size: 11px;fill: rgb(28%,34%,39%); stroke:none;" transform="translate(0,1152) scale(1,-1)">OUT_GND = GND -&gt; WHITE / 0V.</text>
			<text x="55" y="560" style="font-family: DejaVu; font-size: 11px;fill: rgb(28%,34%,39%); stroke:none;" transform="translate(0,1120) scale(1,-1)">Initialize to 4 mA CLOSED before controls.</text>
			<text x="55" y="544" style="font-family: DejaVu; font-size: 11px;fill: rgb(28%,34%,39%); stroke:none;" transform="translate(0,1088) scale(1,-1)">0 mA is NOT the documented closed command.</text>
			<rect x="35" y="295" width="360" height="130" style="stroke: rgb(61%,67%,70%); stroke-linecap: butt; stroke-width: 1; fill: rgb(92%,94%,96%); fill-rule: evenodd;"/>
			<text x="47" y="402" style="font-family: DejaVu-Bold; font-size: 12px;fill: rgb(9%,18%,27%); stroke:none;" transform="translate(0,804) scale(1,-1)">U3 / SEN0262</text>
			<text x="47" y="384" style="font-family: DejaVu; font-size: 9px;fill: rgb(28%,34%,39%); stroke:none;" transform="translate(0,768) scale(1,-1)">VCC 5 V; GND 0V; SIGNAL -&gt; R4 / A0</text>
			<text x="55" y="370" style="font-family: DejaVu; font-size: 11px;fill: rgb(28%,34%,39%); stroke:none;" transform="translate(0,740) scale(1,-1)">I+ -&gt; valve YELLOW directly.</text>
			<text x="55" y="354" style="font-family: DejaVu; font-size: 11px;fill: rgb(28%,34%,39%); stroke:none;" transform="translate(0,708) scale(1,-1)">I- -&gt; WHITE / 0V. No added shunt.</text>
			<rect x="35" y="102" width="630" height="158" style="stroke: rgb(61%,67%,70%); stroke-linecap: butt; stroke-width: 1; fill: rgb(92%,94%,96%); fill-rule: evenodd;"/>
			<text x="47" y="237" style="font-family: DejaVu-Bold; font-size: 12px;fill: rgb(9%,18%,27%); stroke:none;" transform="translate(0,474) scale(1,-1)">CONTROLLER RECOVERY / INTERNAL WATCHDOG</text>
			<text x="55" y="213" style="font-family: DejaVu; font-size: 11px;fill: rgb(28%,34%,39%); stroke:none;" transform="translate(0,426) scale(1,-1)">ATmega4809 built-in watchdog: nominal 2.048 s.</text>
			<text x="55" y="197" style="font-family: DejaVu; font-size: 11px;fill: rgb(28%,34%,39%); stroke:none;" transform="translate(0,394) scale(1,-1)">No external reset circuit, relay, or watchdog board.</text>
			<text x="55" y="181" style="font-family: DejaVu; font-size: 11px;fill: rgb(28%,34%,39%); stroke:none;" transform="translate(0,362) scale(1,-1)">Nano RESET headers and HSD3 CH4-CH7 remain unconnected.</text>
			<text x="55" y="165" style="font-family: DejaVu; font-size: 11px;fill: rgb(28%,34%,39%); stroke:none;" transform="translate(0,330) scale(1,-1)">A restart requests CLOSED; it cannot guarantee water shutoff.</text>
			<text x="710" y="245" style="font-family: DejaVu; font-size: 10px;fill: rgb(28%,34%,39%); stroke:none;" transform="translate(0,490) scale(1,-1)">Valve power remains connected.</text>
			<text x="710" y="230" style="font-family: DejaVu; font-size: 10px;fill: rgb(28%,34%,39%); stroke:none;" transform="translate(0,460) scale(1,-1)">If recovery fails: stop work, shut off water,</text>
			<text x="710" y="215" style="font-family: DejaVu; font-size: 10px;fill: rgb(28%,34%,39%); stroke:none;" transform="translate(0,430) scale(1,-1)">then unplug/replug the machine connector.</text>
			<text x="710" y="200" style="font-family: DejaVu; font-size: 10px;fill: rgb(28%,34%,39%); stroke:none;" transform="translate(0,400) scale(1,-1)">No restored ON state after reboot.</text>
			<text x="35" y="59" style="font-family: DejaVu; font-size: 11px;fill: rgb(74%,21%,18%); stroke:none;" transform="translate(0,118) scale(1,-1)">No independent valve-power cut or actuator-current measurement. Reset does not guarantee closure.</text>
			<text x="35" y="43" style="font-family: DejaVu; font-size: 11px;fill: rgb(74%,21%,18%); stroke:none;" transform="translate(0,86) scale(1,-1)">Disconnect valve and machine before USB-only service. Verify power sequencing on the bench.</text>
		</g>
	</g>
</svg>
