<?xml version="1.0" encoding="utf-8"?>
<!DOCTYPE svg
  PUBLIC '-//W3C//DTD SVG 1.0//EN'
  'http://www.w3.org/TR/2001/REC-SVG-20010904/DTD/svg10.dtd'>
<svg width="1120" height="760" preserveAspectRatio="xMinYMin meet" viewBox="0 0 1120 760" xmlns="http://www.w3.org/2000/svg" version="1.0" fill-rule="evenodd" xmlns:xlink="http://www.w3.org/1999/xlink">
	<title>...</title>
	<desc>...</desc>
	<clipPath id="clip">
		<rect x="0" y="0" width="1120" height="760"/>
	</clipPath>
	<g id="group" transform="scale(1,-1) translate(0,-760)" style="clip-path: url(#clip)">
		<g transform="">
			<rect x="0" y="0" width="1120" height="760" style="stroke: none; stroke-linecap: butt; stroke-width: 1; fill: rgb(100%,100%,100%); fill-rule: evenodd;"/>
			<rect x="0" y="686" width="1120" height="74" style="stroke: none; stroke-linecap: butt; stroke-width: 1; fill: rgb(9%,18%,27%); fill-rule: evenodd;"/>
			<text x="28" y="729" style="font-family: DejaVu-Bold; font-size: 20px;fill: rgb(100%,100%,100%); stroke:none;" transform="translate(0,1458) scale(1,-1)">ROCK-SAW WATER CONTROL / REVISED ELECTRICAL OVERVIEW</text>
			<text x="28" y="704" style="font-family: DejaVu; font-size: 11px;fill: rgb(84%,89%,93%); stroke:none;" transform="translate(0,1408) scale(1,-1)">Detailed terminal circuits: sheets 01-06. Every external wire is listed in connections.csv.</text>
			<text x="28" y="25" style="font-family: DejaVu-Bold; font-size: 10px;fill: rgb(74%,21%,18%); stroke:none;" transform="translate(0,50) scale(1,-1)">REV D  |  07 OCT 2026  |  BENCH DESIGN - H1-H5 HOLD  |  Named nets connect across sheets</text>
			<text x="28" y="9" style="font-family: DejaVu; font-size: 8px;fill: rgb(28%,34%,39%); stroke:none;" transform="translate(0,18) scale(1,-1)">Solid dot = joined wires. Crossing without a dot = no connection. Boxes show functions, not physical footprints.</text>
			<rect x="35" y="525" width="240" height="130" style="stroke: rgb(61%,67%,70%); stroke-linecap: butt; stroke-width: 1; fill: rgb(92%,94%,96%); fill-rule: evenodd;"/>
			<text x="47" y="632" style="font-family: DejaVu-Bold; font-size: 12px;fill: rgb(9%,18%,27%); stroke:none;" transform="translate(0,1264) scale(1,-1)">Reused machine connector</text>
			<text x="47" y="614" style="font-family: DejaVu; font-size: 9px;fill: rgb(28%,34%,39%); stroke:none;" transform="translate(0,1228) scale(1,-1)">12 V + wired return + G/H/J</text>
			<rect x="385" y="525" width="260" height="130" style="stroke: rgb(61%,67%,70%); stroke-linecap: butt; stroke-width: 1; fill: rgb(92%,94%,96%); fill-rule: evenodd;"/>
			<text x="397" y="632" style="font-family: DejaVu-Bold; font-size: 12px;fill: rgb(9%,18%,27%); stroke:none;" transform="translate(0,1264) scale(1,-1)">Arduino Nano Every</text>
			<text x="397" y="614" style="font-family: DejaVu; font-size: 9px;fill: rgb(28%,34%,39%); stroke:none;" transform="translate(0,1228) scale(1,-1)">VIN -&gt; 5 V logic; controls + sensing</text>
			<rect x="775" y="525" width="305" height="130" style="stroke: rgb(61%,67%,70%); stroke-linecap: butt; stroke-width: 1; fill: rgb(92%,94%,96%); fill-rule: evenodd;"/>
			<text x="787" y="632" style="font-family: DejaVu-Bold; font-size: 12px;fill: rgb(9%,18%,27%); stroke:none;" transform="translate(0,1264) scale(1,-1)">Three PCB0046 HSD boards</text>
			<text x="787" y="614" style="font-family: DejaVu; font-size: 9px;fill: rgb(28%,34%,39%); stroke:none;" transform="translate(0,1228) scale(1,-1)">20 lamp channels + valve watchdog</text>
			<rect x="35" y="270" width="240" height="165" style="stroke: rgb(61%,67%,70%); stroke-linecap: butt; stroke-width: 1; fill: rgb(92%,94%,96%); fill-rule: evenodd;"/>
			<text x="47" y="412" style="font-family: DejaVu-Bold; font-size: 12px;fill: rgb(9%,18%,27%); stroke:none;" transform="translate(0,824) scale(1,-1)">Two BOB-09118 input boards</text>
			<text x="47" y="394" style="font-family: DejaVu; font-size: 9px;fill: rgb(28%,34%,39%); stroke:none;" transform="translate(0,788) scale(1,-1)">3 x 1k resistors + reverse diodes</text>
			<rect x="385" y="270" width="260" height="165" style="stroke: rgb(61%,67%,70%); stroke-linecap: butt; stroke-width: 1; fill: rgb(92%,94%,96%); fill-rule: evenodd;"/>
			<text x="397" y="412" style="font-family: DejaVu-Bold; font-size: 12px;fill: rgb(9%,18%,27%); stroke:none;" transform="translate(0,824) scale(1,-1)">DFR1229 + SEN0262</text>
			<text x="397" y="394" style="font-family: DejaVu; font-size: 9px;fill: rgb(28%,34%,39%); stroke:none;" transform="translate(0,788) scale(1,-1)">Command current / position feedback</text>
			<rect x="775" y="270" width="305" height="165" style="stroke: rgb(61%,67%,70%); stroke-linecap: butt; stroke-width: 1; fill: rgb(92%,94%,96%); fill-rule: evenodd;"/>
			<text x="787" y="412" style="font-family: DejaVu-Bold; font-size: 12px;fill: rgb(9%,18%,27%); stroke:none;" transform="translate(0,824) scale(1,-1)">U4 + K1 / valve inhibit</text>
			<text x="787" y="394" style="font-family: DejaVu; font-size: 9px;fill: rgb(28%,34%,39%); stroke:none;" transform="translate(0,788) scale(1,-1)">Switched actuator power + signal relay</text>
			<rect x="35" y="75" width="240" height="90" style="stroke: rgb(61%,67%,70%); stroke-linecap: butt; stroke-width: 1; fill: rgb(92%,94%,96%); fill-rule: evenodd;"/>
			<text x="47" y="142" style="font-family: DejaVu-Bold; font-size: 12px;fill: rgb(9%,18%,27%); stroke:none;" transform="translate(0,284) scale(1,-1)">Flow meter</text>
			<text x="47" y="124" style="font-family: DejaVu; font-size: 9px;fill: rgb(28%,34%,39%); stroke:none;" transform="translate(0,248) scale(1,-1)">5 V pulse / error</text>
			<rect x="775" y="75" width="305" height="90" style="stroke: rgb(61%,67%,70%); stroke-linecap: butt; stroke-width: 1; fill: rgb(92%,94%,96%); fill-rule: evenodd;"/>
			<text x="787" y="142" style="font-family: DejaVu-Bold; font-size: 12px;fill: rgb(9%,18%,27%); stroke:none;" transform="translate(0,284) scale(1,-1)">V1 / stainless ball valve</text>
			<text x="787" y="124" style="font-family: DejaVu; font-size: 9px;fill: rgb(28%,34%,39%); stroke:none;" transform="translate(0,248) scale(1,-1)">One five-wire actuator cable</text>
			<path d="M 275,615 L 385,615 Z" style="stroke: rgb(74%,21%,18%); stroke-linecap: butt; stroke-width: 1.5;"/>
			<text x="283" y="625" style="font-family: DejaVu; font-size: 10px;fill: rgb(74%,21%,18%); stroke:none;" transform="translate(0,1250) scale(1,-1)">12 V / 0V</text>
			<path d="M 645,615 L 775,615 Z" style="stroke: rgb(3%,47%,32%); stroke-linecap: butt; stroke-width: 1.5;"/>
			<text x="652" y="625" style="font-family: DejaVu; font-size: 9px;fill: rgb(3%,47%,32%); stroke:none;" transform="translate(0,1250) scale(1,-1)">5 V / I2C / 0V</text>
			<path d="M 150,525 L 150,435 Z" style="stroke: rgb(74%,21%,18%); stroke-linecap: butt; stroke-width: 1.5;"/>
			<text x="164" y="471" style="font-family: DejaVu; font-size: 10px;fill: rgb(74%,21%,18%); stroke:none;" transform="translate(0,942) scale(1,-1)">G/H/J</text>
			<path d="M 275,386 L 335,386 Z" style="stroke: rgb(3%,47%,32%); stroke-linecap: butt; stroke-width: 1.5;"/>
			<path d="M 335,386 L 335,550 Z" style="stroke: rgb(3%,47%,32%); stroke-linecap: butt; stroke-width: 1.5;"/>
			<path d="M 335,550 L 385,550 Z" style="stroke: rgb(3%,47%,32%); stroke-linecap: butt; stroke-width: 1.5;"/>
			<text x="285" y="416" style="font-family: DejaVu; font-size: 9px;fill: rgb(3%,47%,32%); stroke:none;" transform="translate(0,832) scale(1,-1)">D2/3/4</text>
			<path d="M 515,525 L 515,435 Z" style="stroke: rgb(3%,47%,32%); stroke-linecap: butt; stroke-width: 1.5;"/>
			<text x="531" y="486" style="font-family: DejaVu; font-size: 10px;fill: rgb(3%,47%,32%); stroke:none;" transform="translate(0,972) scale(1,-1)">I2C / A0</text>
			<text x="531" y="466" style="font-family: DejaVu; font-size: 10px;fill: rgb(66%,35%,4%); stroke:none;" transform="translate(0,932) scale(1,-1)">5 V / 0V</text>
			<path d="M 930,525 L 930,435 Z" style="stroke: rgb(74%,21%,18%); stroke-linecap: butt; stroke-width: 1.5;"/>
			<text x="945" y="479" style="font-family: DejaVu; font-size: 10px;fill: rgb(74%,21%,18%); stroke:none;" transform="translate(0,958) scale(1,-1)">HSD3 ch4</text>
			<path d="M 645,353 L 775,353 Z" style="stroke: rgb(3%,47%,32%); stroke-linecap: butt; stroke-width: 1.5;"/>
			<text x="657" y="369" style="font-family: DejaVu; font-size: 10px;fill: rgb(3%,47%,32%); stroke:none;" transform="translate(0,738) scale(1,-1)">4-20 mA</text>
			<path d="M 930,270 L 930,165 Z" style="stroke: rgb(74%,21%,18%); stroke-linecap: butt; stroke-width: 1.5;"/>
			<text x="945" y="227" style="font-family: DejaVu; font-size: 10px;fill: rgb(74%,21%,18%); stroke:none;" transform="translate(0,454) scale(1,-1)">Power +</text>
			<text x="945" y="210" style="font-family: DejaVu; font-size: 10px;fill: rgb(3%,47%,32%); stroke:none;" transform="translate(0,420) scale(1,-1)">signals</text>
			<path d="M 275,120 L 695,120 Z" style="stroke: rgb(3%,47%,32%); stroke-linecap: butt; stroke-width: 1.5;"/>
			<path d="M 695,120 L 695,480 Z" style="stroke: rgb(3%,47%,32%); stroke-linecap: butt; stroke-width: 1.5;"/>
			<path d="M 695,480 L 610,480 Z" style="stroke: rgb(3%,47%,32%); stroke-linecap: butt; stroke-width: 1.5;"/>
			<path d="M 610,480 L 610,525 Z" style="stroke: rgb(3%,47%,32%); stroke-linecap: butt; stroke-width: 1.5;"/>
			<text x="340" y="132" style="font-family: DejaVu; font-size: 9px;fill: rgb(3%,47%,32%); stroke:none;" transform="translate(0,264) scale(1,-1)">D8 flow / D9 error</text>
			<text x="395" y="220" style="font-family: DejaVu; font-size: 11px;fill: rgb(28%,34%,39%); stroke:none;" transform="translate(0,440) scale(1,-1)">Plumbing: manual shutoff -&gt; meter -&gt;</text>
			<text x="395" y="204" style="font-family: DejaVu; font-size: 11px;fill: rgb(28%,34%,39%); stroke:none;" transform="translate(0,408) scale(1,-1)">straight section -&gt; valve -&gt; saw sprayer.</text>
			<text x="395" y="188" style="font-family: DejaVu; font-size: 11px;fill: rgb(28%,34%,39%); stroke:none;" transform="translate(0,376) scale(1,-1)">No electrical wires to hose or valve body.</text>
			<text x="35" y="45" style="font-family: DejaVu; font-size: 10px;fill: rgb(74%,21%,18%); stroke:none;" transform="translate(0,90) scale(1,-1)">OVERVIEW ONLY: grouped links represent multiple conductors. Use the detailed circuit sheets to assemble.</text>
		</g>
	</g>
</svg>
